<?xml version="1.0" encoding="utf-8"?>
<!-- Svg Vector Icons : http://www.onlinewebfonts.com/icon -->
<!DOCTYPE svg PUBLIC "-//W3C//DTD SVG 1.1//EN" "http://www.w3.org/Graphics/SVG/1.1/DTD/svg11.dtd">
<svg version="1.1" xmlns="http://www.w3.org/2000/svg" xmlns:xlink="http://www.w3.org/1999/xlink" x="0px" y="0px" viewBox="0 0 1000 1000" enable-background="new 0 0 1000 1000" xml:space="preserve">
<metadata> Svg Vector Icons : http://www.onlinewebfonts.com/icon </metadata>
<g><g transform="translate(0.000000,512.000000) scale(0.100000,-0.100000)"><path d="M1403.1,120v-4905.7h3455.1c3813.5,0,3595-5.8,3842.2,124.6c266.4,139.9,473.3,389,573,686c46,143.7,51.7,187.8,59.4,527l7.7,367.9h-375.6h-375.6v-185.9c-1.9-410.1-132.2-741.6-400.5-1011.8c-70.9-72.8-174.4-149.5-251-189.7c-208.9-109.2-312.4-126.5-827.9-126.5h-454.2l159.1,159c128.4,126.5,174.4,189.7,237.6,320c147.6,302.8,138,15.3,138,4235c0,4221.6,9.6,3926.5-138,4235c-63.2,130.3-109.2,193.5-235.7,321.9l-157.1,157.1h461.8c507.8,0,594.1-11.5,793.3-113.1c233.8-116.9,413.9-312.4,540.4-586.4c141.8-300.9,134.1-141.8,134.1-2930c0-2489.3,0-2502.7,38.3-2504.6c21.1-1.9,145.6-1.9,277.9-1.9s283.6,0,335.4,1.9l95.8,1.9l-3.8,2688.6l-5.7,2686.7l-51.7,139.9c-136.1,371.8-385.2,632.4-728.2,755l-120.7,44.1l-3510.7,5.7l-3512.6,3.8V120z M5810.6,2371.7v-239.5H4248.8H2687v239.5v239.5h1561.8h1561.8V2371.7z M5810.6,1059V541.6H4248.8H2687V1059v517.4h1561.8h1561.8V1059z"/><path d="M780.3,4922.3c-318.1-149.5-548.1-438.8-643.9-810.6C100,3969.9,100,3866.4,100,120s0-3849.9,36.4-3991.7c47.9-185.9,115-327.7,228-475.2c115-153.3,341.1-322,496.3-369.9l44.1-13.4V118.1c0,2667.5-5.7,4850.2-13.4,4850.2C881.9,4968.3,833.9,4947.2,780.3,4922.3z"/><path d="M7562.1,3688.2c-65.2-42.2-65.2-59.4-65.2-3573.9v-3476.2l40.2-51.7c47.9-59.4,116.9-65.1,170.6-11.5c38.3,38.3,38.3,63.2,38.3,3545.2s0,3506.8-38.3,3545.2C7669.4,3703.5,7600.4,3715,7562.1,3688.2z"/><path d="M8054.6,3653.7c-40.2-51.7-40.2-51.7-40.2-2500.8v-2451h124.6h124.6v2462.5c0,2437.5,0,2462.5-38.3,2500.8C8171.5,3718.8,8102.5,3713.1,8054.6,3653.7z"/><path d="M8022-1575.9c-5.8-11.5-5.8-295.1-3.8-632.4l5.7-613.2l935.2-5.7c513.6-1.9,933.2,0,933.2,5.7s-111.1,153.3-249.1,327.7L9396-2175.7l203.1,253c111.1,138,226.1,274,252.9,304.7l47.9,51.7l-115,1.9C9120.1-1552.9,8027.8-1560.6,8022-1575.9z"/><path d="M8014.3-3222c0-161,42.2-241.4,126.5-241.4c90.1,0,122.7,59.4,122.7,230v153.3h-124.6h-124.6V-3222z"/></g></g>
</svg>